<svg width="32" height="32" viewBox="0 0 32 32" fill="none" xmlns="http://www.w3.org/2000/svg">
<g clip-path="url(#clip0_3:96)">
<path d="M30.6666 3.99998C29.3898 4.90062 27.9761 5.58946 26.48 6.03998C25.677 5.11666 24.6098 4.46224 23.4227 4.16521C22.2356 3.86819 20.986 3.94291 19.8428 4.37925C18.6995 4.81559 17.7179 5.59252 17.0306 6.60494C16.3433 7.61736 15.9836 8.81643 16 10.04V11.3733C13.6568 11.4341 11.335 10.9144 9.24132 9.86057C7.14764 8.80675 5.34707 7.25149 3.99998 5.33331C3.99998 5.33331 -1.33335 17.3333 10.6666 22.6666C7.92068 24.5306 4.64952 25.4652 1.33331 25.3333C13.3333 32 28 25.3333 28 9.99998C27.9988 9.62858 27.963 9.25811 27.8933 8.89331C29.2541 7.5513 30.2144 5.85693 30.6666 3.99998V3.99998Z" stroke="white" stroke-width="4" stroke-linecap="round" stroke-linejoin="round"/>
</g>
<defs>
<clipPath id="clip0_3:96">
<rect width="32" height="32" fill="white"/>
</clipPath>
</defs>
</svg>
